<svg width="1739" height="194" viewBox="0 0 1739 194" fill="none" xmlns="http://www.w3.org/2000/svg">
<path d="M75.9737 14.3031V31.5783H21.176V69.658H63.8997V86.9332H21.176V143.403H0V14.3031H75.9737Z" fill="#101828"/>
<path d="M128.849 145.074C119.189 145.074 110.459 142.907 102.657 138.573C94.8554 134.115 88.7255 127.923 84.2674 119.998C79.8093 111.948 77.5802 102.66 77.5802 92.1344C77.5802 81.7321 79.8712 72.5063 84.4531 64.4569C89.0351 56.4075 95.2888 50.2157 103.214 45.8814C111.14 41.5472 119.994 39.38 129.777 39.38C139.56 39.38 148.415 41.5472 156.34 45.8814C164.266 50.2157 170.52 56.4075 175.101 64.4569C179.683 72.5063 181.974 81.7321 181.974 92.1344C181.974 102.537 179.621 111.762 174.916 119.812C170.21 127.861 163.77 134.115 155.597 138.573C147.548 142.907 138.632 145.074 128.849 145.074ZM128.849 126.685C134.297 126.685 139.375 125.384 144.08 122.784C148.91 120.183 152.811 116.283 155.783 111.081C158.755 105.88 160.241 99.5646 160.241 92.1344C160.241 84.7042 158.817 78.4504 155.969 73.3731C153.12 68.172 149.343 64.2712 144.638 61.6706C139.932 59.07 134.855 57.7697 129.406 57.7697C123.957 57.7697 118.88 59.07 114.174 61.6706C109.592 64.2712 105.939 68.172 103.214 73.3731C100.49 78.4504 99.1277 84.7042 99.1277 92.1344C99.1277 103.156 101.914 111.701 107.487 117.769C113.183 123.713 120.304 126.685 128.849 126.685Z" fill="#101828"/>
<path d="M212.939 55.9122C216.035 50.7111 220.121 46.6864 225.199 43.8381C230.4 40.8661 236.53 39.38 243.588 39.38V61.2991H238.201C229.904 61.2991 223.589 63.4043 219.255 67.6147C215.044 71.8252 212.939 79.1315 212.939 89.5338V143.403H191.763V41.0518H212.939V55.9122Z" fill="#101828"/>
<path d="M276.614 58.327V114.982C276.614 118.821 277.48 121.607 279.214 123.341C281.072 124.951 284.168 125.756 288.502 125.756H301.505V143.403H284.787C275.251 143.403 267.945 141.174 262.868 136.716C257.79 132.257 255.252 125.013 255.252 114.982V58.327H243.178V41.0518H255.252V15.6034H276.614V41.0518H301.505V58.327H276.614Z" fill="#101828"/>
<path d="M320.65 27.4917C316.812 27.4917 313.592 26.1914 310.991 23.5909C308.391 20.9903 307.09 17.7705 307.09 13.9316C307.09 10.0927 308.391 6.87292 310.991 4.27236C313.592 1.67179 316.812 0.371505 320.65 0.371505C324.366 0.371505 327.523 1.67179 330.124 4.27236C332.725 6.87292 334.025 10.0927 334.025 13.9316C334.025 17.7705 332.725 20.9903 330.124 23.5909C327.523 26.1914 324.366 27.4917 320.65 27.4917ZM331.053 41.0518V143.403H309.877V41.0518H331.053Z" fill="#101828"/>
<path d="M390.619 58.327H371.672V143.403H350.31V58.327H338.236V41.0518H350.31V33.8074C350.31 22.0429 353.406 13.4982 359.598 8.17321C365.914 2.7244 375.759 0 389.133 0V17.6467C382.694 17.6467 378.174 18.8851 375.573 21.3618C372.972 23.7147 371.672 27.8632 371.672 33.8074V41.0518H390.619V58.327Z" fill="#101828"/>
<path d="M490.375 41.0518L427.59 191.513H405.671L426.476 141.731L386.167 41.0518H409.758L438.55 119.069L468.456 41.0518H490.375Z" fill="#101828"/>
<path d="M525.259 91.7629C525.259 81.4844 527.365 72.3824 531.575 64.4569C535.909 56.5314 541.73 50.4015 549.036 46.0672C556.466 41.6091 564.701 39.38 573.741 39.38C580.429 39.38 586.992 40.8661 593.431 43.8381C599.995 46.6864 605.196 50.5253 609.035 55.3549V5.94415H630.397V143.403H609.035V127.985C605.567 132.939 600.738 137.025 594.546 140.245C588.478 143.465 581.481 145.074 573.556 145.074C564.639 145.074 556.466 142.845 549.036 138.387C541.73 133.805 535.909 127.49 531.575 119.44C527.365 111.267 525.259 102.041 525.259 91.7629ZM609.035 92.1344C609.035 85.0757 607.549 78.9458 604.577 73.7446C601.728 68.5435 597.951 64.5808 593.246 61.8564C588.54 59.1319 583.463 57.7697 578.014 57.7697C572.565 57.7697 567.488 59.1319 562.782 61.8564C558.076 64.4569 554.237 68.3578 551.265 73.5589C548.417 78.6362 546.993 84.7042 546.993 91.7629C546.993 98.8216 548.417 105.013 551.265 110.338C554.237 115.663 558.076 119.75 562.782 122.598C567.611 125.323 572.689 126.685 578.014 126.685C583.463 126.685 588.54 125.323 593.246 122.598C597.951 119.874 601.728 115.911 604.577 110.71C607.549 105.385 609.035 99.1931 609.035 92.1344Z" fill="#101828"/>
<path d="M740.871 89.7196C740.871 93.5585 740.624 97.0259 740.128 100.122H661.926C662.545 108.295 665.579 114.858 671.028 119.812C676.476 124.765 683.164 127.242 691.089 127.242C702.482 127.242 710.531 122.474 715.237 112.939H738.085C734.989 122.35 729.355 130.09 721.181 136.158C713.132 142.102 703.101 145.074 691.089 145.074C681.306 145.074 672.514 142.907 664.712 138.573C657.034 134.115 650.966 127.923 646.508 119.998C642.174 111.948 640.006 102.66 640.006 92.1344C640.006 81.6083 642.112 72.3824 646.322 64.4569C650.656 56.4075 656.663 50.2157 664.34 45.8814C672.142 41.5472 681.058 39.38 691.089 39.38C700.748 39.38 709.355 41.4852 716.909 45.6957C724.463 49.9061 730.345 55.8503 734.556 63.5281C738.766 71.0822 740.871 79.8126 740.871 89.7196ZM718.767 83.0324C718.643 75.2307 715.856 68.9769 710.408 64.2712C704.959 59.5654 698.21 57.2125 690.16 57.2125C682.854 57.2125 676.6 59.5654 671.399 64.2712C666.198 68.8531 663.102 75.1069 662.111 83.0324H718.767Z" fill="#101828"/>
<path d="M787.716 145.074C779.667 145.074 772.423 143.65 765.983 140.802C759.667 137.83 754.652 133.867 750.937 128.914C747.222 123.837 745.24 118.202 744.993 112.01H766.912C767.283 116.344 769.327 119.998 773.042 122.97C776.881 125.818 781.648 127.242 787.345 127.242C793.289 127.242 797.871 126.128 801.091 123.898C804.434 121.546 806.106 118.573 806.106 114.982C806.106 111.143 804.249 108.295 800.533 106.438C796.942 104.58 791.184 102.537 783.258 100.308C775.58 98.2024 769.327 96.1591 764.497 94.1777C759.667 92.1963 755.457 89.1623 751.866 85.0757C748.398 80.9891 746.665 75.6022 746.665 68.915C746.665 63.4662 748.274 58.5128 751.494 54.0546C754.714 49.4727 759.296 45.8814 765.24 43.2809C771.308 40.6803 778.243 39.38 786.045 39.38C797.685 39.38 807.035 42.3521 814.094 48.2962C821.276 54.1166 825.115 62.104 825.61 72.2586H804.434C804.063 67.6767 802.205 64.0235 798.862 61.2991C795.518 58.5747 790.998 57.2125 785.302 57.2125C779.729 57.2125 775.457 58.2651 772.484 60.3703C769.512 62.4755 768.026 65.2619 768.026 68.7293C768.026 71.4537 769.017 73.7447 770.998 75.6022C772.98 77.4597 775.395 78.9458 778.243 80.0603C781.091 81.051 785.302 82.3513 790.874 83.9612C798.304 85.9426 804.372 87.9859 809.078 90.0911C813.908 92.0725 818.056 95.0445 821.524 99.0073C824.991 102.97 826.787 108.233 826.911 114.796C826.911 120.617 825.301 125.818 822.081 130.4C818.861 134.982 814.279 138.573 808.335 141.174C802.515 143.774 795.642 145.074 787.716 145.074Z" fill="#101828"/>
<path d="M849.42 27.4917C845.581 27.4917 842.362 26.1914 839.761 23.5909C837.161 20.9903 835.86 17.7705 835.86 13.9316C835.86 10.0927 837.161 6.87292 839.761 4.27236C842.362 1.67179 845.581 0.371505 849.42 0.371505C853.135 0.371505 856.293 1.67179 858.894 4.27236C861.494 6.87292 862.795 10.0927 862.795 13.9316C862.795 17.7705 861.494 20.9903 858.894 23.5909C856.293 26.1914 853.135 27.4917 849.42 27.4917ZM859.823 41.0518V143.403H838.647V41.0518H859.823Z" fill="#101828"/>
<path d="M917.717 39.38C925.643 39.38 932.639 40.9899 938.707 44.2096C944.899 47.3056 949.729 51.2064 953.196 55.9122V41.0518H974.558V145.074C974.558 154.486 972.577 162.845 968.614 170.151C964.651 177.582 958.893 183.402 951.339 187.612C943.909 191.823 934.992 193.928 924.59 193.928C910.72 193.928 899.204 190.646 890.04 184.083C880.876 177.644 875.675 168.851 874.436 157.706H895.427C897.036 163.031 900.442 167.303 905.643 170.523C910.968 173.866 917.284 175.538 924.59 175.538C933.135 175.538 940.008 172.938 945.209 167.737C950.534 162.535 953.196 154.981 953.196 145.074V127.985C949.605 132.815 944.714 136.901 938.522 140.245C932.454 143.465 925.519 145.074 917.717 145.074C908.801 145.074 900.628 142.845 893.198 138.387C885.891 133.805 880.071 127.49 875.737 119.44C871.526 111.267 869.421 102.041 869.421 91.7629C869.421 81.4844 871.526 72.3824 875.737 64.4569C880.071 56.5314 885.891 50.4015 893.198 46.0672C900.628 41.6091 908.801 39.38 917.717 39.38ZM953.196 92.1344C953.196 85.0757 951.71 78.9458 948.738 73.7446C945.89 68.5435 942.113 64.5808 937.407 61.8564C932.701 59.1319 927.624 57.7697 922.175 57.7697C916.726 57.7697 911.649 59.1319 906.943 61.8564C902.238 64.4569 898.399 68.3578 895.427 73.5589C892.578 78.6362 891.154 84.7042 891.154 91.7629C891.154 98.8216 892.578 105.013 895.427 110.338C898.399 115.663 902.238 119.75 906.943 122.598C911.773 125.323 916.85 126.685 922.175 126.685C927.624 126.685 932.701 125.323 937.407 122.598C942.113 119.874 945.89 115.911 948.738 110.71C951.71 105.385 953.196 99.1931 953.196 92.1344Z" fill="#101828"/>
<path d="M1042.87 39.38C1050.92 39.38 1058.1 41.0518 1064.41 44.3954C1070.85 47.739 1075.87 52.6924 1079.46 59.2558C1083.05 65.8191 1084.85 73.7447 1084.85 83.0324V143.403H1063.86V86.1902C1063.86 77.0263 1061.57 70.0296 1056.98 65.1999C1052.4 60.2465 1046.15 57.7697 1038.22 57.7697C1030.3 57.7697 1023.98 60.2465 1019.28 65.1999C1014.69 70.0296 1012.4 77.0263 1012.4 86.1902V143.403H991.227V41.0518H1012.4V52.7544C1015.87 48.5439 1020.27 45.2623 1025.59 42.9094C1031.04 40.5565 1036.8 39.38 1042.87 39.38Z" fill="#101828"/>
<path d="M1174.97 145.074C1166.92 145.074 1159.68 143.65 1153.24 140.802C1146.92 137.83 1141.91 133.867 1138.19 128.914C1134.48 123.837 1132.5 118.202 1132.25 112.01H1154.17C1154.54 116.344 1156.58 119.998 1160.3 122.97C1164.14 125.818 1168.9 127.242 1174.6 127.242C1180.54 127.242 1185.13 126.128 1188.35 123.898C1191.69 121.546 1193.36 118.573 1193.36 114.982C1193.36 111.143 1191.5 108.295 1187.79 106.438C1184.2 104.58 1178.44 102.537 1170.51 100.308C1162.84 98.2024 1156.58 96.1591 1151.75 94.1777C1146.92 92.1963 1142.71 89.1623 1139.12 85.0757C1135.65 80.9891 1133.92 75.6022 1133.92 68.915C1133.92 63.4662 1135.53 58.5128 1138.75 54.0546C1141.97 49.4727 1146.55 45.8814 1152.5 43.2809C1158.56 40.6803 1165.5 39.38 1173.3 39.38C1184.94 39.38 1194.29 42.3521 1201.35 48.2962C1208.53 54.1166 1212.37 62.104 1212.87 72.2586H1191.69C1191.32 67.6767 1189.46 64.0235 1186.12 61.2991C1182.77 58.5747 1178.25 57.2125 1172.56 57.2125C1166.98 57.2125 1162.71 58.2651 1159.74 60.3703C1156.77 62.4755 1155.28 65.2619 1155.28 68.7293C1155.28 71.4537 1156.27 73.7447 1158.25 75.6022C1160.24 77.4597 1162.65 78.9458 1165.5 80.0603C1168.35 81.051 1172.56 82.3513 1178.13 83.9612C1185.56 85.9426 1191.63 87.9859 1196.33 90.0911C1201.16 92.0725 1205.31 95.0445 1208.78 99.0073C1212.25 102.97 1214.04 108.233 1214.17 114.796C1214.17 120.617 1212.56 125.818 1209.34 130.4C1206.12 134.982 1201.53 138.573 1195.59 141.174C1189.77 143.774 1182.9 145.074 1174.97 145.074Z" fill="#101828"/>
<path d="M1318.04 41.0518L1255.25 191.513H1233.33L1254.14 141.731L1213.83 41.0518H1237.42L1266.21 119.069L1296.12 41.0518H1318.04Z" fill="#101828"/>
<path d="M1360.02 145.074C1351.97 145.074 1344.73 143.65 1338.29 140.802C1331.97 137.83 1326.96 133.867 1323.24 128.914C1319.53 123.837 1317.55 118.202 1317.3 112.01H1339.22C1339.59 116.344 1341.63 119.998 1345.35 122.97C1349.19 125.818 1353.95 127.242 1359.65 127.242C1365.6 127.242 1370.18 126.128 1373.4 123.898C1376.74 121.546 1378.41 118.573 1378.41 114.982C1378.41 111.143 1376.55 108.295 1372.84 106.438C1369.25 104.58 1363.49 102.537 1355.56 100.308C1347.89 98.2024 1341.63 96.1591 1336.8 94.1777C1331.97 92.1963 1327.76 89.1623 1324.17 85.0757C1320.7 80.9891 1318.97 75.6022 1318.97 68.915C1318.97 63.4662 1320.58 58.5128 1323.8 54.0546C1327.02 49.4727 1331.6 45.8814 1337.55 43.2809C1343.61 40.6803 1350.55 39.38 1358.35 39.38C1369.99 39.38 1379.34 42.3521 1386.4 48.2962C1393.58 54.1166 1397.42 62.104 1397.92 72.2586H1376.74C1376.37 67.6767 1374.51 64.0235 1371.17 61.2991C1367.82 58.5747 1363.3 57.2125 1357.61 57.2125C1352.04 57.2125 1347.76 58.2651 1344.79 60.3703C1341.82 62.4755 1340.33 65.2619 1340.33 68.7293C1340.33 71.4537 1341.32 73.7447 1343.3 75.6022C1345.29 77.4597 1347.7 78.9458 1350.55 80.0603C1353.4 81.051 1357.61 82.3513 1363.18 83.9612C1370.61 85.9426 1376.68 87.9859 1381.38 90.0911C1386.21 92.0725 1390.36 95.0445 1393.83 99.0073C1397.3 102.97 1399.09 108.233 1399.22 114.796C1399.22 120.617 1397.61 125.818 1394.39 130.4C1391.17 134.982 1386.59 138.573 1380.64 141.174C1374.82 143.774 1367.95 145.074 1360.02 145.074Z" fill="#101828"/>
<path d="M1435.66 58.327V114.982C1435.66 118.821 1436.52 121.607 1438.26 123.341C1440.12 124.951 1443.21 125.756 1447.55 125.756H1460.55V143.403H1443.83C1434.3 143.403 1426.99 141.174 1421.91 136.716C1416.83 132.257 1414.3 125.013 1414.3 114.982V58.327H1402.22V41.0518H1414.3V15.6034H1435.66V41.0518H1460.55V58.327H1435.66Z" fill="#101828"/>
<path d="M1562.73 89.7196C1562.73 93.5585 1562.48 97.0259 1561.98 100.122H1483.78C1484.4 108.295 1487.43 114.858 1492.88 119.812C1498.33 124.765 1505.02 127.242 1512.95 127.242C1524.34 127.242 1532.39 122.474 1537.09 112.939H1559.94C1556.85 122.35 1551.21 130.09 1543.04 136.158C1534.99 142.102 1524.96 145.074 1512.95 145.074C1503.16 145.074 1494.37 142.907 1486.57 138.573C1478.89 134.115 1472.82 127.923 1468.36 119.998C1464.03 111.948 1461.86 102.66 1461.86 92.1344C1461.86 81.6083 1463.97 72.3824 1468.18 64.4569C1472.51 56.4075 1478.52 50.2157 1486.2 45.8814C1494 41.5472 1502.91 39.38 1512.95 39.38C1522.6 39.38 1531.21 41.4852 1538.77 45.6957C1546.32 49.9061 1552.2 55.8503 1556.41 63.5281C1560.62 71.0822 1562.73 79.8126 1562.73 89.7196ZM1540.62 83.0324C1540.5 75.2307 1537.71 68.9769 1532.26 64.2712C1526.81 59.5654 1520.07 57.2125 1512.02 57.2125C1504.71 57.2125 1498.46 59.5654 1493.26 64.2712C1488.05 68.8531 1484.96 75.1069 1483.97 83.0324H1540.62Z" fill="#101828"/>
<path d="M1696.32 39.38C1704.37 39.38 1711.55 41.0518 1717.87 44.3954C1724.31 47.739 1729.32 52.6924 1732.91 59.2558C1736.63 65.8191 1738.49 73.7447 1738.49 83.0324V143.403H1717.5V86.1902C1717.5 77.0263 1715.2 70.0296 1710.62 65.1999C1706.04 60.2465 1699.79 57.7697 1691.86 57.7697C1683.94 57.7697 1677.62 60.2465 1672.91 65.1999C1668.33 70.0296 1666.04 77.0263 1666.04 86.1902V143.403H1645.05V86.1902C1645.05 77.0263 1642.76 70.0296 1638.18 65.1999C1633.6 60.2465 1627.34 57.7697 1619.42 57.7697C1611.49 57.7697 1605.18 60.2465 1600.47 65.1999C1595.89 70.0296 1593.6 77.0263 1593.6 86.1902V143.403H1572.42V41.0518H1593.6V52.7544C1597.06 48.5439 1601.46 45.2623 1606.79 42.9094C1612.11 40.5565 1617.81 39.38 1623.88 39.38C1632.05 39.38 1639.36 41.1137 1645.79 44.5812C1652.23 48.0486 1657.19 53.064 1660.66 59.6273C1663.75 53.4355 1668.58 48.5439 1675.14 44.9527C1681.71 41.2376 1688.77 39.38 1696.32 39.38Z" fill="#101828"/>
</svg>
